<?xml version="1.0" encoding="UTF-8" standalone="no"?>
<!DOCTYPE svg PUBLIC "-//W3C//DTD SVG 1.1//EN"
 "http://www.w3.org/Graphics/SVG/1.1/DTD/svg11.dtd">
<!-- Generated by graphviz version 2.38.0 (20140413.2041)
 -->
<!-- Title: %3 Pages: 1 -->
<svg width="869pt" height="603pt"
 viewBox="0.00 0.00 868.70 603.00" xmlns="http://www.w3.org/2000/svg" xmlns:xlink="http://www.w3.org/1999/xlink">
<g id="graph0" class="graph" transform="scale(1 1) rotate(0) translate(4 599)">
<title>%3</title>
<polygon fill="#3f3f3f" stroke="none" points="-4,4 -4,-599 864.7,-599 864.7,4 -4,4"/>
<text text-anchor="middle" x="430.35" y="-9.2" font-family="Times,serif" font-size="16.00" fill="white">Network Map</text>
<!-- SW1 -->
<g id="node1" class="node"><title>SW1</title>
<polygon fill="#006699" stroke="#006699" points="507.7,-99 415.7,-99 415.7,-26 507.7,-26 507.7,-99"/>
<text text-anchor="middle" x="461.7" y="-58.8" font-family="Helvetica,sans-Serif" font-size="14.00" fill="white">SW1</text>
</g>
<!-- R3 -->
<g id="node2" class="node"><title>R3</title>
<polygon fill="#006699" stroke="#006699" points="135.2,-223 58.2003,-223 58.2003,-150 135.2,-150 135.2,-223"/>
<text text-anchor="middle" x="96.7003" y="-182.8" font-family="Helvetica,sans-Serif" font-size="14.00" fill="white">R3</text>
</g>
<!-- SW1&#45;&#45;R3 -->
<g id="edge13" class="edge"><title>SW1&#45;&#45;R3</title>
<path fill="none" stroke="green" stroke-dasharray="5,2" d="M415.472,-66.0258C311.822,-72.1609 67.99,-89.4033 43.7003,-117 31.6795,-130.657 42.8625,-146.707 58,-159.837"/>
<text text-anchor="middle" x="93.7003" y="-120.8" font-family="Courier,monospace" font-size="14.00" fill="white"> &#160;&#160;&#160;&#160;&#160;&#160;&#160;&#160;&#160;&#160;&#160;</text>
<text text-anchor="middle" x="29" y="-148.637" font-family="Courier,monospace" font-size="14.00" fill="white">Eth 0/0</text>
<text text-anchor="middle" x="386.472" y="-54.8258" font-family="Courier,monospace" font-size="14.00" fill="white">Eth 0/3</text>
</g>
<!-- R4 -->
<g id="node3" class="node"><title>R4</title>
<polygon fill="#006699" stroke="#006699" points="349.2,-223 272.2,-223 272.2,-150 349.2,-150 349.2,-223"/>
<text text-anchor="middle" x="310.7" y="-182.8" font-family="Helvetica,sans-Serif" font-size="14.00" fill="white">R4</text>
</g>
<!-- SW1&#45;&#45;R4 -->
<g id="edge14" class="edge"><title>SW1&#45;&#45;R4</title>
<path fill="none" stroke="green" stroke-dasharray="5,2" d="M415.419,-70.6135C366.799,-79.1435 295.128,-95.0822 278.7,-117 271.3,-126.873 273.649,-138.731 279.585,-149.786"/>
<text text-anchor="middle" x="328.7" y="-120.8" font-family="Courier,monospace" font-size="14.00" fill="white"> &#160;&#160;&#160;&#160;&#160;&#160;&#160;&#160;&#160;&#160;&#160;</text>
<text text-anchor="middle" x="250.585" y="-138.586" font-family="Courier,monospace" font-size="14.00" fill="white">Eth 0/0</text>
<text text-anchor="middle" x="386.419" y="-74.4135" font-family="Courier,monospace" font-size="14.00" fill="white">Eth 0/4</text>
</g>
<!-- R2 -->
<g id="node5" class="node"><title>R2</title>
<polygon fill="#006699" stroke="#006699" points="500.2,-471 423.2,-471 423.2,-398 500.2,-398 500.2,-471"/>
<text text-anchor="middle" x="461.7" y="-430.8" font-family="Helvetica,sans-Serif" font-size="14.00" fill="white">R2</text>
</g>
<!-- SW1&#45;&#45;R2 -->
<g id="edge12" class="edge"><title>SW1&#45;&#45;R2</title>
<path fill="none" stroke="green" stroke-dasharray="5,2" d="M495.551,-99.2277C499.278,-104.83 502.511,-110.822 504.7,-117 541.513,-220.894 505.478,-254.777 505.7,-365 505.714,-371.667 507.95,-373.724 505.7,-380 503.469,-386.226 500.165,-392.247 496.353,-397.863"/>
<text text-anchor="middle" x="568.7" y="-244.8" font-family="Courier,monospace" font-size="14.00" fill="white"> &#160;&#160;&#160;&#160;&#160;&#160;&#160;&#160;&#160;&#160;&#160;</text>
<text text-anchor="middle" x="467.353" y="-386.663" font-family="Courier,monospace" font-size="14.00" fill="white">Eth 0/0</text>
<text text-anchor="middle" x="466.551" y="-103.028" font-family="Courier,monospace" font-size="14.00" fill="white">Eth 0/2</text>
</g>
<!-- R1 -->
<g id="node7" class="node"><title>R1</title>
<polygon fill="#006699" stroke="#006699" points="669.2,-223 592.2,-223 592.2,-150 669.2,-150 669.2,-223"/>
<text text-anchor="middle" x="630.7" y="-182.8" font-family="Helvetica,sans-Serif" font-size="14.00" fill="white">R1</text>
</g>
<!-- SW1&#45;&#45;R1 -->
<g id="edge11" class="edge"><title>SW1&#45;&#45;R1</title>
<path fill="none" stroke="green" stroke-dasharray="5,2" d="M507.767,-99.1287C515.435,-105.085 523.298,-111.209 530.7,-117 539.174,-123.63 540.982,-125.696 549.7,-132 563.221,-141.776 578.398,-151.991 591.928,-160.845"/>
<text text-anchor="middle" x="599.7" y="-120.8" font-family="Courier,monospace" font-size="14.00" fill="white"> &#160;&#160;&#160;&#160;&#160;&#160;&#160;&#160;&#160;&#160;&#160;</text>
<text text-anchor="middle" x="562.928" y="-149.645" font-family="Courier,monospace" font-size="14.00" fill="white">Eth 0/0</text>
<text text-anchor="middle" x="536.767" y="-87.9287" font-family="Courier,monospace" font-size="14.00" fill="white">Eth 0/1</text>
</g>
<!-- R3&#45;&#45;SW1 -->
<g id="edge5" class="edge"><title>R3&#45;&#45;SW1</title>
<path fill="none" stroke="green" stroke-dasharray="5,2" d="M127.126,-149.996C139.45,-137.741 154.578,-125.075 170.7,-117 250.502,-77.032 356.028,-66.6728 415.599,-64.1419"/>
<text text-anchor="middle" x="220.7" y="-120.8" font-family="Courier,monospace" font-size="14.00" fill="white"> &#160;&#160;&#160;&#160;&#160;&#160;&#160;&#160;&#160;&#160;&#160;</text>
<text text-anchor="middle" x="386.599" y="-67.9419" font-family="Courier,monospace" font-size="14.00" fill="white">Eth 0/3</text>
<text text-anchor="middle" x="98.1256" y="-138.796" font-family="Courier,monospace" font-size="14.00" fill="white">Eth 0/0</text>
</g>
<!-- R4&#45;&#45;SW1 -->
<g id="edge6" class="edge"><title>R4&#45;&#45;SW1</title>
<path fill="none" stroke="green" stroke-dasharray="5,2" d="M349.222,-157.707C360.169,-149.585 372.016,-140.582 382.7,-132 395.58,-121.655 409.285,-110.01 421.601,-99.2948"/>
<text text-anchor="middle" x="450.7" y="-120.8" font-family="Courier,monospace" font-size="14.00" fill="white"> &#160;&#160;&#160;&#160;&#160;&#160;&#160;&#160;&#160;&#160;&#160;</text>
<text text-anchor="middle" x="392.601" y="-103.095" font-family="Courier,monospace" font-size="14.00" fill="white">Eth 0/4</text>
<text text-anchor="middle" x="378.222" y="-146.507" font-family="Courier,monospace" font-size="14.00" fill="white">Eth 0/0</text>
</g>
<!-- R5 -->
<g id="node6" class="node"><title>R5</title>
<polygon fill="#006699" stroke="#006699" points="363.2,-347 286.2,-347 286.2,-274 363.2,-274 363.2,-347"/>
<text text-anchor="middle" x="324.7" y="-306.8" font-family="Helvetica,sans-Serif" font-size="14.00" fill="white">R5</text>
</g>
<!-- R4&#45;&#45;R5 -->
<g id="edge7" class="edge"><title>R4&#45;&#45;R5</title>
<path fill="none" stroke="green" stroke-dasharray="5,2" d="M272.144,-206.976C252.892,-219.535 235.635,-237.028 245.7,-256 254.395,-272.389 270.603,-284.677 286.086,-293.317"/>
<text text-anchor="middle" x="295.7" y="-244.8" font-family="Courier,monospace" font-size="14.00" fill="white"> &#160;&#160;&#160;&#160;&#160;&#160;&#160;&#160;&#160;&#160;&#160;</text>
<text text-anchor="middle" x="257.086" y="-282.117" font-family="Courier,monospace" font-size="14.00" fill="white">Eth 0/1</text>
<text text-anchor="middle" x="243.144" y="-195.776" font-family="Courier,monospace" font-size="14.00" fill="white">Eth 0/1</text>
</g>
<!-- R6 -->
<g id="node4" class="node"><title>R6</title>
<polygon fill="#006699" stroke="#006699" points="500.2,-595 423.2,-595 423.2,-522 500.2,-522 500.2,-595"/>
<text text-anchor="middle" x="461.7" y="-554.8" font-family="Helvetica,sans-Serif" font-size="14.00" fill="white">R6</text>
</g>
<!-- R6&#45;&#45;R2 -->
<g id="edge10" class="edge"><title>R6&#45;&#45;R2</title>
<path fill="none" stroke="green" stroke-dasharray="5,2" d="M496.134,-521.865C502.149,-511.657 505.437,-500.239 501.7,-489 499.651,-482.837 496.584,-476.811 493.043,-471.156"/>
<text text-anchor="middle" x="553.7" y="-492.8" font-family="Courier,monospace" font-size="14.00" fill="white"> &#160;&#160;&#160;&#160;&#160;&#160;&#160;&#160;&#160;&#160;&#160;</text>
<text text-anchor="middle" x="464.043" y="-474.956" font-family="Courier,monospace" font-size="14.00" fill="white">Eth 0/2</text>
<text text-anchor="middle" x="467.134" y="-510.665" font-family="Courier,monospace" font-size="14.00" fill="white">Eth 0/1</text>
</g>
<!-- R2&#45;&#45;SW1 -->
<g id="edge2" class="edge"><title>R2&#45;&#45;SW1</title>
<path fill="none" stroke="green" stroke-dasharray="5,2" d="M500.275,-417.059C602.394,-371.335 865.195,-238.056 763.7,-117 731.586,-78.696 584.139,-67.8 507.802,-64.7127"/>
<text text-anchor="middle" x="810.7" y="-244.8" font-family="Courier,monospace" font-size="14.00" fill="white"> &#160;&#160;&#160;&#160;&#160;&#160;&#160;&#160;&#160;&#160;&#160;</text>
<text text-anchor="middle" x="536.802" y="-53.5127" font-family="Courier,monospace" font-size="14.00" fill="white">Eth 0/2</text>
<text text-anchor="middle" x="529.275" y="-405.859" font-family="Courier,monospace" font-size="14.00" fill="white">Eth 0/0</text>
</g>
<!-- R2&#45;&#45;R6 -->
<g id="edge4" class="edge"><title>R2&#45;&#45;R6</title>
<path fill="none" stroke="green" stroke-dasharray="5,2" d="M423.022,-461.293C414.41,-469.089 406.437,-478.429 401.7,-489 393.813,-506.601 407.07,-522.983 423.109,-535.311"/>
<text text-anchor="middle" x="451.7" y="-492.8" font-family="Courier,monospace" font-size="14.00" fill="white"> &#160;&#160;&#160;&#160;&#160;&#160;&#160;&#160;&#160;&#160;&#160;</text>
<text text-anchor="middle" x="394.109" y="-524.111" font-family="Courier,monospace" font-size="14.00" fill="white">Eth 0/1</text>
<text text-anchor="middle" x="394.022" y="-450.093" font-family="Courier,monospace" font-size="14.00" fill="white">Eth 0/2</text>
</g>
<!-- R2&#45;&#45;R5 -->
<g id="edge3" class="edge"><title>R2&#45;&#45;R5</title>
<path fill="none" stroke="green" stroke-dasharray="5,2" d="M422.988,-399.026C404.286,-382.372 381.905,-362.441 363.227,-345.808"/>
<text text-anchor="middle" x="451.7" y="-368.8" font-family="Courier,monospace" font-size="14.00" fill="white"> &#160;&#160;&#160;&#160;&#160;&#160;&#160;&#160;&#160;&#160;&#160;</text>
<text text-anchor="middle" x="392.227" y="-334.608" font-family="Courier,monospace" font-size="14.00" fill="white">Eth 0/0</text>
<text text-anchor="middle" x="393.988" y="-387.826" font-family="Courier,monospace" font-size="14.00" fill="white">Eth 0/1</text>
</g>
<!-- R5&#45;&#45;R4 -->
<g id="edge9" class="edge"><title>R5&#45;&#45;R4</title>
<path fill="none" stroke="green" stroke-dasharray="5,2" d="M343.772,-273.979C347.252,-263.38 348.898,-251.728 345.7,-241 343.893,-234.937 341.156,-228.922 337.992,-223.233"/>
<text text-anchor="middle" x="397.7" y="-244.8" font-family="Courier,monospace" font-size="14.00" fill="white"> &#160;&#160;&#160;&#160;&#160;&#160;&#160;&#160;&#160;&#160;&#160;</text>
<text text-anchor="middle" x="308.992" y="-227.033" font-family="Courier,monospace" font-size="14.00" fill="white">Eth 0/1</text>
<text text-anchor="middle" x="314.772" y="-262.779" font-family="Courier,monospace" font-size="14.00" fill="white">Eth 0/1</text>
</g>
<!-- R5&#45;&#45;R2 -->
<g id="edge8" class="edge"><title>R5&#45;&#45;R2</title>
<path fill="none" stroke="green" stroke-dasharray="5,2" d="M286.117,-345.315C277.757,-356.605 273.556,-369.083 281.7,-380 298.611,-402.668 375.278,-419.184 422.936,-427.475"/>
<text text-anchor="middle" x="331.7" y="-368.8" font-family="Courier,monospace" font-size="14.00" fill="white"> &#160;&#160;&#160;&#160;&#160;&#160;&#160;&#160;&#160;&#160;&#160;</text>
<text text-anchor="middle" x="393.936" y="-416.275" font-family="Courier,monospace" font-size="14.00" fill="white">Eth 0/1</text>
<text text-anchor="middle" x="257.117" y="-334.115" font-family="Courier,monospace" font-size="14.00" fill="white">Eth 0/0</text>
</g>
<!-- R1&#45;&#45;SW1 -->
<g id="edge1" class="edge"><title>R1&#45;&#45;SW1</title>
<path fill="none" stroke="green" stroke-dasharray="5,2" d="M654.959,-149.913C659.571,-138.621 660.984,-126.591 653.7,-117 636.121,-93.8521 558.927,-78.0453 507.933,-69.9134"/>
<text text-anchor="middle" x="709.7" y="-120.8" font-family="Courier,monospace" font-size="14.00" fill="white"> &#160;&#160;&#160;&#160;&#160;&#160;&#160;&#160;&#160;&#160;&#160;</text>
<text text-anchor="middle" x="536.933" y="-73.7134" font-family="Courier,monospace" font-size="14.00" fill="white">Eth 0/1</text>
<text text-anchor="middle" x="625.959" y="-138.713" font-family="Courier,monospace" font-size="14.00" fill="white">Eth 0/0</text>
</g>
</g>
</svg>
